<mxfile host="app.diagrams.net" modified="2022-04-13T07:05:09.550Z" agent="5.0 (Windows NT 10.0; Win64; x64) AppleWebKit/537.36 (KHTML, like Gecko) Chrome/100.0.4896.75 Safari/537.36" etag="4XaZE7JtC0p3mLXZyKa1" version="17.2.4" type="github">
  <diagram id="4q8-WN65QJk6b8WYARNs" name="Page-1">
    <mxGraphModel dx="1422" dy="754" grid="1" gridSize="10" guides="1" tooltips="1" connect="1" arrows="1" fold="1" page="1" pageScale="1" pageWidth="827" pageHeight="1169" math="0" shadow="0">
      <root>
        <mxCell id="0" />
        <mxCell id="1" parent="0" />
        <mxCell id="7zNDrWUyi1R2apm__8Nn-30" value="" style="rounded=1;whiteSpace=wrap;html=1;fontSize=14;arcSize=2;" vertex="1" parent="1">
          <mxGeometry x="152.5" y="240" width="575" height="430" as="geometry" />
        </mxCell>
        <mxCell id="7zNDrWUyi1R2apm__8Nn-1" value="" style="rounded=1;whiteSpace=wrap;html=1;arcSize=4;" vertex="1" parent="1">
          <mxGeometry x="170" y="290" width="540" height="360" as="geometry" />
        </mxCell>
        <mxCell id="7zNDrWUyi1R2apm__8Nn-2" value="音频捕获" style="rounded=1;whiteSpace=wrap;html=1;dashed=1;" vertex="1" parent="1">
          <mxGeometry x="185" y="590" width="150" height="40" as="geometry" />
        </mxCell>
        <mxCell id="7zNDrWUyi1R2apm__8Nn-3" value="视频捕获" style="rounded=1;whiteSpace=wrap;html=1;dashed=1;" vertex="1" parent="1">
          <mxGeometry x="365" y="590" width="150" height="40" as="geometry" />
        </mxCell>
        <mxCell id="7zNDrWUyi1R2apm__8Nn-6" value="" style="rounded=1;whiteSpace=wrap;html=1;fillColor=#d5e8d4;strokeColor=#82b366;" vertex="1" parent="1">
          <mxGeometry x="360" y="412" width="160" height="160" as="geometry" />
        </mxCell>
        <mxCell id="7zNDrWUyi1R2apm__8Nn-8" value="网络I/O" style="rounded=1;whiteSpace=wrap;html=1;dashed=1;" vertex="1" parent="1">
          <mxGeometry x="540" y="590" width="150" height="40" as="geometry" />
        </mxCell>
        <mxCell id="7zNDrWUyi1R2apm__8Nn-9" value="" style="rounded=1;whiteSpace=wrap;html=1;fillColor=#d5e8d4;strokeColor=#82b366;" vertex="1" parent="1">
          <mxGeometry x="180" y="411" width="160" height="160" as="geometry" />
        </mxCell>
        <mxCell id="7zNDrWUyi1R2apm__8Nn-12" value="" style="rounded=1;whiteSpace=wrap;html=1;fillColor=#d5e8d4;strokeColor=#82b366;" vertex="1" parent="1">
          <mxGeometry x="540" y="412" width="160" height="160" as="geometry" />
        </mxCell>
        <mxCell id="7zNDrWUyi1R2apm__8Nn-13" value="iSAC/iLBC 编解码" style="rounded=1;whiteSpace=wrap;html=1;fillColor=#dae8fc;strokeColor=#6c8ebf;" vertex="1" parent="1">
          <mxGeometry x="200" y="447" width="120" height="30" as="geometry" />
        </mxCell>
        <mxCell id="7zNDrWUyi1R2apm__8Nn-14" value="音频NetEQ" style="rounded=1;whiteSpace=wrap;html=1;fillColor=#dae8fc;strokeColor=#6c8ebf;" vertex="1" parent="1">
          <mxGeometry x="200" y="486" width="120" height="30" as="geometry" />
        </mxCell>
        <mxCell id="7zNDrWUyi1R2apm__8Nn-16" value="回声抑制/噪音消除" style="rounded=1;whiteSpace=wrap;html=1;fillColor=#dae8fc;strokeColor=#6c8ebf;" vertex="1" parent="1">
          <mxGeometry x="200" y="526" width="120" height="30" as="geometry" />
        </mxCell>
        <mxCell id="7zNDrWUyi1R2apm__8Nn-17" value="VP8编码器" style="rounded=1;whiteSpace=wrap;html=1;fillColor=#dae8fc;strokeColor=#6c8ebf;" vertex="1" parent="1">
          <mxGeometry x="380" y="447" width="120" height="30" as="geometry" />
        </mxCell>
        <mxCell id="7zNDrWUyi1R2apm__8Nn-18" value="视频抖动缓冲" style="rounded=1;whiteSpace=wrap;html=1;fillColor=#dae8fc;strokeColor=#6c8ebf;" vertex="1" parent="1">
          <mxGeometry x="380" y="487" width="120" height="30" as="geometry" />
        </mxCell>
        <mxCell id="7zNDrWUyi1R2apm__8Nn-19" value="图像增强" style="rounded=1;whiteSpace=wrap;html=1;fillColor=#dae8fc;strokeColor=#6c8ebf;" vertex="1" parent="1">
          <mxGeometry x="380" y="527" width="120" height="30" as="geometry" />
        </mxCell>
        <mxCell id="7zNDrWUyi1R2apm__8Nn-20" value="SRTP" style="rounded=1;whiteSpace=wrap;html=1;fillColor=#dae8fc;strokeColor=#6c8ebf;" vertex="1" parent="1">
          <mxGeometry x="560" y="447" width="120" height="30" as="geometry" />
        </mxCell>
        <mxCell id="7zNDrWUyi1R2apm__8Nn-21" value="Multiplexing" style="rounded=1;whiteSpace=wrap;html=1;fillColor=#dae8fc;strokeColor=#6c8ebf;" vertex="1" parent="1">
          <mxGeometry x="560" y="487" width="120" height="30" as="geometry" />
        </mxCell>
        <mxCell id="7zNDrWUyi1R2apm__8Nn-22" value="P2P&lt;br&gt;STUN+TURN+ICE" style="rounded=1;whiteSpace=wrap;html=1;fillColor=#dae8fc;strokeColor=#6c8ebf;" vertex="1" parent="1">
          <mxGeometry x="560" y="527" width="120" height="30" as="geometry" />
        </mxCell>
        <mxCell id="7zNDrWUyi1R2apm__8Nn-23" value="WebRTC C++ API" style="rounded=1;whiteSpace=wrap;html=1;fillColor=#f8cecc;strokeColor=#b85450;" vertex="1" parent="1">
          <mxGeometry x="180" y="325" width="520" height="30" as="geometry" />
        </mxCell>
        <mxCell id="7zNDrWUyi1R2apm__8Nn-24" value="Session 管理" style="rounded=1;whiteSpace=wrap;html=1;fillColor=#dae8fc;strokeColor=#6c8ebf;" vertex="1" parent="1">
          <mxGeometry x="180" y="365" width="520" height="30" as="geometry" />
        </mxCell>
        <mxCell id="7zNDrWUyi1R2apm__8Nn-25" value="WebRTC" style="text;html=1;strokeColor=none;fillColor=none;align=center;verticalAlign=middle;whiteSpace=wrap;rounded=0;fontStyle=1;fontSize=14;" vertex="1" parent="1">
          <mxGeometry x="211" y="294" width="60" height="30" as="geometry" />
        </mxCell>
        <mxCell id="7zNDrWUyi1R2apm__8Nn-26" value="Voice Engine" style="text;html=1;strokeColor=none;fillColor=none;align=center;verticalAlign=middle;whiteSpace=wrap;rounded=0;fontSize=14;fontStyle=1" vertex="1" parent="1">
          <mxGeometry x="200" y="411" width="110" height="30" as="geometry" />
        </mxCell>
        <mxCell id="7zNDrWUyi1R2apm__8Nn-27" value="Video Engine" style="text;html=1;strokeColor=none;fillColor=none;align=center;verticalAlign=middle;whiteSpace=wrap;rounded=0;fontSize=14;fontStyle=1" vertex="1" parent="1">
          <mxGeometry x="380" y="417" width="110" height="30" as="geometry" />
        </mxCell>
        <mxCell id="7zNDrWUyi1R2apm__8Nn-28" value="Transport" style="text;html=1;strokeColor=none;fillColor=none;align=center;verticalAlign=middle;whiteSpace=wrap;rounded=0;fontSize=14;fontStyle=1" vertex="1" parent="1">
          <mxGeometry x="560" y="417" width="110" height="30" as="geometry" />
        </mxCell>
        <mxCell id="7zNDrWUyi1R2apm__8Nn-31" value="Web API (Edited by W3C WG)" style="rounded=1;whiteSpace=wrap;html=1;fontSize=14;fillColor=#e1d5e7;strokeColor=#9673a6;" vertex="1" parent="1">
          <mxGeometry x="187.5" y="220" width="505" height="50" as="geometry" />
        </mxCell>
        <mxCell id="7zNDrWUyi1R2apm__8Nn-36" value="" style="shape=flexArrow;endArrow=classic;html=1;rounded=0;fontSize=14;fontColor=#000000;fillColor=#e1d5e7;strokeColor=#9673a6;" edge="1" parent="1">
          <mxGeometry width="50" height="50" relative="1" as="geometry">
            <mxPoint x="439.5" y="264" as="sourcePoint" />
            <mxPoint x="439.5" y="324" as="targetPoint" />
          </mxGeometry>
        </mxCell>
        <mxCell id="7zNDrWUyi1R2apm__8Nn-44" value="用户Web应用" style="rounded=1;whiteSpace=wrap;html=1;fontSize=14;" vertex="1" parent="1">
          <mxGeometry x="187.5" y="140" width="505" height="50" as="geometry" />
        </mxCell>
        <mxCell id="7zNDrWUyi1R2apm__8Nn-46" value="" style="shape=flexArrow;endArrow=classic;html=1;rounded=0;fontSize=14;fontColor=#000000;" edge="1" parent="1">
          <mxGeometry width="50" height="50" relative="1" as="geometry">
            <mxPoint x="440" y="190" as="sourcePoint" />
            <mxPoint x="439.5" y="220" as="targetPoint" />
          </mxGeometry>
        </mxCell>
        <mxCell id="7zNDrWUyi1R2apm__8Nn-47" value="浏览器" style="text;html=1;strokeColor=none;fillColor=none;align=center;verticalAlign=middle;whiteSpace=wrap;rounded=0;fontSize=16;fontColor=#000000;" vertex="1" parent="1">
          <mxGeometry x="737.5" y="430" width="60" height="30" as="geometry" />
        </mxCell>
        <mxCell id="7zNDrWUyi1R2apm__8Nn-48" value="Web应用" style="text;html=1;strokeColor=none;fillColor=none;align=center;verticalAlign=middle;whiteSpace=wrap;rounded=0;fontSize=16;fontColor=#000000;" vertex="1" parent="1">
          <mxGeometry x="727.5" y="150" width="80" height="30" as="geometry" />
        </mxCell>
      </root>
    </mxGraphModel>
  </diagram>
</mxfile>
